<?xml version="1.0" standalone="no"?><!DOCTYPE svg PUBLIC "-//W3C//DTD SVG 1.1//EN" "http://www.w3.org/Graphics/SVG/1.1/DTD/svg11.dtd"><svg t="1740149876426" class="icon" viewBox="0 0 1024 1024" version="1.1" xmlns="http://www.w3.org/2000/svg" p-id="888" width="48" height="48" xmlns:xlink="http://www.w3.org/1999/xlink"><path d="M64 512C64 264.576 264.576 64 512 64s448 200.576 448 448-200.576 448-448 448S64 759.424 64 512z m128 0c0 176.736 143.264 320 320 320s320-143.264 320-320S688.736 192 512 192 192 335.264 192 512z" fill="#ABC4F5" p-id="889"></path><path d="M512 64c247.424 0 448 200.576 448 448 0 118.304-45.856 225.92-120.768 305.984l-93.44-87.456A318.88 318.88 0 0 0 832 512c0-176.736-143.264-320-320-320V64z" fill="#0061b2" p-id="890"></path><path d="M512 64c244.096 0 442.56 195.2 447.904 437.984L960 512h-128c0-176.736-143.264-320-320-320a319.008 319.008 0 0 0-226.272 93.728L195.2 195.2A446.592 446.592 0 0 1 512 64z" fill="#1296db" p-id="891"></path><path d="M284.832 286.624a318.976 318.976 0 0 1 216.096-94.432L512.992 192c16.384 74.656 69.408 149.344 159.008 224 63.936 53.28 117.216 82.624 159.872 88L832 512l-17.376-1.6c-213.216-20.768-388.736-94.368-526.56-220.736l-3.232-3.04z" fill="#ABC4F5" p-id="892"></path><path d="M251.68 698.112c124.928-155.84 318.048-209.408 579.328-160.736a318.336 318.336 0 0 1-20.512 90.24C702.976 568.736 603.52 562.24 512 608c-89.696 44.832-116.544 136.832-124.576 198.88a321.28 321.28 0 0 1-131.68-103.2l-4.064-5.568z" fill="#82A6F0" p-id="893"></path><path d="M192 512c0-4 0.064-8 0.224-11.936 173.44-8.832 334.272 80.544 482.496 268.16l10.176 13.088a318.4 318.4 0 0 1-86.72 38.944c-42.528-114.656-113.28-184.704-212.256-210.208-65.376-16.8-123.264 1.152-168.384 27.392A318.976 318.976 0 0 1 192 512z" fill="#C0D2F7" p-id="894"></path></svg>