<?xml version="1.0" standalone="no"?><!DOCTYPE svg PUBLIC "-//W3C//DTD SVG 1.1//EN" "http://www.w3.org/Graphics/SVG/1.1/DTD/svg11.dtd"><svg t="1740148779448" class="icon" viewBox="0 0 1024 1024" version="1.1" xmlns="http://www.w3.org/2000/svg" p-id="918" width="48" height="48" xmlns:xlink="http://www.w3.org/1999/xlink"><path d="M234.666667 0v1024h-213.333334V0h213.333334z m256 0v1024h-213.333334V0h213.333334z m256 0v1024h-213.333334V0h213.333334z m256 0v1024h-213.333334V0h213.333334z" fill="#aedef8" p-id="919"></path><path d="M234.666667 426.666667v597.333333h-213.333334V426.666667h213.333334z m256-213.333334v810.666667h-213.333334V213.333333h213.333334z m256 298.666667v512h-213.333334V512h213.333334z m256-170.666667v682.666667h-213.333334V341.333333h213.333334z" fill="#6dc5f3" p-id="920"></path><path d="M234.666667 682.666667v341.333333h-213.333334v-341.333333h213.333334z m256-298.666667v640h-213.333334V384h213.333334z m256 426.666667v213.333333h-213.333334v-213.333333h213.333334z m256-384v597.333333h-213.333334V426.666667h213.333334z" fill="#1296db" p-id="921"></path><path d="M170.666667 42.666667L102.4 170.666667H85.333333l68.266667-128H170.666667z m256 0L358.4 170.666667H341.333333l68.266667-128h17.066667z m256 0l-68.266667 128h-12.8l68.266667-128h12.8z m256 0l-68.266667 128h-12.8l68.266667-128h12.8zM170.666667 98.133333c8.533333 0 17.066667 4.266667 21.333333 8.533334 4.266667 4.266667 8.533333 12.8 8.533333 21.333333s-4.266667 17.066667-8.533333 21.333333c-4.266667 12.8-8.533333 17.066667-21.333333 17.066667-8.533333 0-17.066667-4.266667-21.333334-8.533333-4.266667-8.533333-4.266667-12.8-4.266666-25.6 0-8.533333 4.266667-17.066667 8.533333-21.333334 0-8.533333 8.533333-12.8 17.066667-12.8z m256 0c8.533333 0 17.066667 4.266667 21.333333 8.533334 4.266667 4.266667 8.533333 12.8 8.533333 21.333333s-4.266667 17.066667-8.533333 21.333333c-4.266667 12.8-8.533333 17.066667-21.333333 17.066667-8.533333 0-17.066667-4.266667-21.333334-8.533333-4.266667-8.533333-4.266667-12.8-4.266666-25.6 0-8.533333 4.266667-17.066667 8.533333-21.333334 0-8.533333 8.533333-12.8 17.066667-12.8z m256 0c8.533333 0 17.066667 4.266667 21.333333 8.533334 4.266667 4.266667 8.533333 12.8 8.533333 21.333333s-4.266667 17.066667-8.533333 21.333333c-4.266667 8.533333-12.8 8.533333-21.333333 8.533334s-17.066667-4.266667-21.333334-8.533334c-4.266667-4.266667-8.533333-12.8-8.533333-21.333333s4.266667-17.066667 8.533333-21.333333c4.266667-4.266667 12.8-8.533333 21.333334-8.533334z m256 0c8.533333 0 17.066667 4.266667 21.333333 8.533334 4.266667 4.266667 8.533333 12.8 8.533333 21.333333s-4.266667 17.066667-8.533333 21.333333c-4.266667 8.533333-12.8 8.533333-21.333333 8.533334s-17.066667-4.266667-21.333334-8.533334c-4.266667-4.266667-8.533333-12.8-8.533333-21.333333s4.266667-17.066667 8.533333-21.333333 12.8-8.533333 21.333334-8.533334zM170.666667 110.933333c-4.266667 0-8.533333 4.266667-8.533334 8.533334s-4.266667 8.533333-4.266666 17.066666c0 4.266667 0 12.8 4.266666 12.8 0 4.266667 4.266667 8.533333 8.533334 8.533334s8.533333-4.266667 8.533333-8.533334 4.266667-8.533333 4.266667-12.8 0-12.8-4.266667-12.8c0-8.533333-4.266667-12.8-8.533333-12.8z m256 0c-4.266667 0-8.533333 4.266667-8.533334 8.533334s-4.266667 8.533333-4.266666 17.066666c0 4.266667 0 12.8 4.266666 12.8 0 4.266667 4.266667 8.533333 8.533334 8.533334s8.533333-4.266667 8.533333-8.533334 4.266667-8.533333 4.266667-12.8 0-12.8-4.266667-12.8c0-8.533333-4.266667-12.8-8.533333-12.8z m256 0c-4.266667 0-8.533333 4.266667-8.533334 8.533334s-4.266667 8.533333-4.266666 17.066666c0 4.266667 0 12.8 4.266666 12.8 0 4.266667 4.266667 8.533333 8.533334 8.533334s8.533333-4.266667 8.533333-8.533334 4.266667-8.533333 4.266667-12.8 0-12.8-4.266667-12.8c0-8.533333-4.266667-12.8-8.533333-12.8z m256 0c-4.266667 0-8.533333 4.266667-8.533334 8.533334s-4.266667 8.533333-4.266666 17.066666c0 4.266667 0 12.8 4.266666 12.8 0 4.266667 4.266667 8.533333 8.533334 8.533334s8.533333-4.266667 8.533333-8.533334 4.266667-8.533333 4.266667-12.8 0-12.8-4.266667-12.8c0-8.533333-4.266667-12.8-8.533333-12.8zM85.333333 46.933333c8.533333 0 17.066667 4.266667 21.333334 8.533334 4.266667 4.266667 8.533333 12.8 8.533333 21.333333s-4.266667 17.066667-8.533333 21.333333c-4.266667 8.533333-12.8 12.8-21.333334 12.8s-17.066667-4.266667-21.333333-8.533333c-4.266667-8.533333-8.533333-12.8-8.533333-25.6 0-8.533333 4.266667-17.066667 8.533333-21.333333 4.266667-8.533333 12.8-8.533333 21.333333-8.533334z m256 0c8.533333 0 17.066667 4.266667 21.333334 8.533334 4.266667 4.266667 8.533333 12.8 8.533333 21.333333s-4.266667 17.066667-8.533333 21.333333c-4.266667 8.533333-12.8 12.8-21.333334 12.8s-17.066667-4.266667-21.333333-8.533333c-4.266667-8.533333-8.533333-12.8-8.533333-25.6 0-8.533333 4.266667-17.066667 8.533333-21.333333 4.266667-8.533333 12.8-8.533333 21.333333-8.533334z m256 0c8.533333 0 17.066667 4.266667 21.333334 8.533334s8.533333 12.8 8.533333 21.333333-4.266667 17.066667-8.533333 21.333333c-4.266667 8.533333-12.8 8.533333-21.333334 8.533334s-17.066667-4.266667-21.333333-8.533334c-4.266667-4.266667-8.533333-12.8-8.533333-21.333333s4.266667-17.066667 8.533333-21.333333c4.266667-8.533333 12.8-8.533333 21.333333-8.533334z m256 0c8.533333 0 17.066667 4.266667 21.333334 8.533334s8.533333 12.8 8.533333 21.333333-4.266667 17.066667-8.533333 21.333333c-4.266667 8.533333-12.8 8.533333-21.333334 8.533334s-17.066667-4.266667-21.333333-8.533334c-4.266667-4.266667-8.533333-12.8-8.533333-21.333333s4.266667-17.066667 8.533333-21.333333c4.266667-8.533333 12.8-8.533333 21.333333-8.533334zM85.333333 55.466667c-4.266667 0-8.533333 4.266667-8.533333 8.533333s-4.266667 8.533333-4.266667 17.066667c0 4.266667 0 12.8 4.266667 12.8 0 4.266667 4.266667 8.533333 8.533333 8.533333s8.533333-4.266667 8.533334-8.533333 4.266667-8.533333 4.266666-12.8c0-4.266667 0-12.8-4.266666-12.8-4.266667-8.533333-4.266667-12.8-8.533334-12.8z m256 0c-4.266667 0-8.533333 4.266667-8.533333 8.533333s-4.266667 8.533333-4.266667 17.066667c0 4.266667 0 12.8 4.266667 12.8 0 4.266667 4.266667 8.533333 8.533333 8.533333s8.533333-4.266667 8.533334-8.533333 4.266667-8.533333 4.266666-12.8c0-4.266667 0-12.8-4.266666-12.8-4.266667-8.533333-4.266667-12.8-8.533334-12.8z m256 0c-4.266667 0-8.533333 4.266667-8.533333 8.533333s-4.266667 8.533333-4.266667 17.066667c0 4.266667 0 12.8 4.266667 12.8 0 4.266667 4.266667 8.533333 8.533333 8.533333s8.533333-4.266667 8.533334-8.533333 4.266667-8.533333 4.266666-12.8c0-4.266667 0-12.8-4.266666-12.8-4.266667-8.533333-4.266667-12.8-8.533334-12.8z m256 0c-4.266667 0-8.533333 4.266667-8.533333 8.533333s-4.266667 8.533333-4.266667 17.066667c0 4.266667 0 12.8 4.266667 12.8 0 4.266667 4.266667 8.533333 8.533333 8.533333s8.533333-4.266667 8.533334-8.533333 4.266667-8.533333 4.266666-12.8c0-4.266667 0-12.8-4.266666-12.8-4.266667-8.533333-4.266667-12.8-8.533334-12.8z" fill="#FFFFFF" p-id="922"></path></svg>