<?xml version="1.0" standalone="no"?><!DOCTYPE svg PUBLIC "-//W3C//DTD SVG 1.1//EN" "http://www.w3.org/Graphics/SVG/1.1/DTD/svg11.dtd"><svg t="1740149110646" class="icon" viewBox="0 0 1024 1024" version="1.1" xmlns="http://www.w3.org/2000/svg" p-id="1186" width="48" height="48" xmlns:xlink="http://www.w3.org/1999/xlink"><path d="M41.907473 823.572954V0H5.466192v823.572954h36.441281zM304.284698 976.626335h714.24911v-36.441282H304.284698v36.441282z" fill="#1296db" p-id="1187"></path><path d="M909.209964 867.302491h-58.306049v145.765125h58.306049" fill="#047CF7" p-id="1188"></path><path d="M114.790036 21.864769h364.412811v218.647687H114.790036z" fill="#00C6FF" p-id="1189"></path><path d="M114.790036 313.395018h874.590747v218.647687H114.790036z" fill="#047CF7" p-id="1190"></path><path d="M114.790036 604.925267h619.501779v218.647687H114.790036z" fill="#00C6FF" p-id="1191"></path><path d="M114.790036 1024C63.772242 1024 23.686833 983.914591 23.686833 932.896797s40.085409-91.103203 91.103203-91.103203 91.103203 40.085409 91.103202 91.103203-40.085409 91.103203-91.103202 91.103203z m0-145.765125c-29.153025 0-54.661922 25.508897-54.661922 54.661922s25.508897 54.661922 54.661922 54.661922 54.661922-25.508897 54.661921-54.661922-25.508897-54.661922-54.661921-54.661922z" fill="#00C6FF" p-id="1192"></path></svg>