<?xml version="1.0" standalone="no"?><!DOCTYPE svg PUBLIC "-//W3C//DTD SVG 1.1//EN" "http://www.w3.org/Graphics/SVG/1.1/DTD/svg11.dtd"><svg t="1740149205779" class="icon" viewBox="0 0 1024 1024" version="1.1" xmlns="http://www.w3.org/2000/svg" p-id="849" width="48" height="48" xmlns:xlink="http://www.w3.org/1999/xlink"><path d="M324.096 190.464h147.456v431.616H324.096V190.464z" fill="#1296db" p-id="850"></path><path d="M673.792 995.328h-63.488c-19.968 0-35.84-15.872-35.84-35.84 0-18.944 13.824-33.792 31.744-35.84v-33.28h-50.688c-14.336 0-25.6-11.264-25.6-25.6V401.408c0-14.336 11.264-25.6 25.6-25.6h50.688v-33.792c-17.92-2.048-31.744-17.408-31.744-35.84 0-19.968 16.384-36.352 36.352-36.352h63.488c19.968 0 36.352 16.384 36.352 36.352 0 18.432-14.336 34.304-32.256 36.352v33.28h45.568c14.336 0 25.6 11.264 25.6 25.6v463.36c0 14.336-11.264 25.6-25.6 25.6h-45.568v33.792c17.92 2.048 31.232 16.896 31.232 35.328 0 19.968-15.872 35.84-35.84 35.84zM179.2 859.136H116.224c-19.968 0-36.352-16.384-36.352-36.352 0-18.432 13.824-33.792 31.744-35.84v-33.792h-48.128c-14.336 0-25.6-11.264-25.6-25.6V479.232c0-14.336 11.264-25.6 25.6-25.6h48.128v-32.768c-17.92-2.048-31.744-17.408-31.744-35.84 0-19.968 16.384-36.352 36.352-36.352H179.2c19.968 0 36.352 16.384 36.352 36.352 0 18.432-13.824 33.792-31.744 35.84v32.768h48.128c14.336 0 25.6 11.264 25.6 25.6v248.32c0 14.336-11.264 25.6-25.6 25.6h-48.128v33.792c17.92 2.048 31.744 17.408 31.744 35.84 0 19.968-16.384 36.352-36.352 36.352z m423.424-40.96h75.264V448h-75.264v370.176z m314.88-75.264h-63.488c-19.968 0-35.84-15.872-35.84-35.84 0-18.944 13.312-33.792 31.232-35.84v-33.792H798.72c-14.336 0-25.6-11.264-25.6-25.6V264.192c0-14.336 11.264-25.6 25.6-25.6h50.688V204.8c-17.408-2.048-30.72-16.384-32.256-33.792V168.96c0-19.968 16.384-36.352 36.352-36.352h63.488c19.968 0 36.352 16.384 36.352 36.352 0 18.432-13.824 33.792-31.744 35.84v33.792h45.568c14.336 0 25.6 11.264 25.6 25.6v347.648c0 14.336-11.264 25.6-25.6 25.6H921.6v33.28c17.92 2.048 31.744 16.896 31.744 35.84 0 20.48-15.872 36.352-35.84 36.352zM110.08 680.96h75.264v-155.136H110.08V680.96z m372.224-23.04H313.856c-14.336 0-25.6-11.264-25.6-25.6V179.712c0-14.336 11.264-25.6 25.6-25.6h168.448c14.336 0 25.6 11.264 25.6 25.6v452.608c0 14.336-11.264 25.6-25.6 25.6z m-121.856-71.68h75.264V226.816H360.448v359.424z m484.864-21.504h75.264V310.784h-75.264v253.952z" fill="#1296db" p-id="851"></path><path d="M432.128 763.904H369.152c-19.968 0-36.352-16.384-36.352-36.352 0-18.432 13.824-33.792 31.744-35.84v-58.88c0-14.336 11.264-25.6 25.6-25.6h20.992c14.336 0 25.6 11.264 25.6 25.6v58.88c17.92 2.048 31.744 17.408 31.744 35.84 0 19.968-16.384 36.352-36.352 36.352z m-20.992-558.08h-20.992c-14.336 0-25.6-11.264-25.6-25.6V121.344c-17.92-2.048-31.744-17.408-31.744-35.84 0-19.456 15.36-35.328 34.816-36.864h64.512c19.968 0 36.352 16.384 36.352 36.352 0 18.432-13.824 33.792-31.744 35.84v59.392c0 14.336-11.264 25.6-25.6 25.6z" fill="#1296db" p-id="852"></path></svg>