<?xml version="1.0" standalone="no"?><!DOCTYPE svg PUBLIC "-//W3C//DTD SVG 1.1//EN" "http://www.w3.org/Graphics/SVG/1.1/DTD/svg11.dtd"><svg t="1740149615029" class="icon" viewBox="0 0 1401 1024" version="1.1" xmlns="http://www.w3.org/2000/svg" p-id="1591" width="65.671875" height="48" xmlns:xlink="http://www.w3.org/1999/xlink"><path d="M0 1013.221053h1401.263158v-32.336842H0z" fill="#2C9AFA" p-id="1592"></path><path d="M1118.100211 242.526316c0 59.284211-48.505263 102.4-102.4 102.4s-102.4-48.505263-102.4-102.4 48.505263-102.4 102.4-102.4 102.4 48.505263 102.4 102.4M837.847579 280.252632c0 156.294737-123.957895 280.252632-280.252632 280.252631s-280.252632-123.957895-280.252631-280.252631 129.347368-280.252632 280.252631-280.252632 280.252632 123.957895 280.252632 280.252632" fill="#B4D8FF" p-id="1593"></path><path d="M595.321263 700.631579c0 97.010526-80.842105 172.463158-172.463158 172.463158s-177.852632-75.452632-177.852631-172.463158 80.842105-172.463158 172.463158-172.463158 177.852632 75.452632 177.852631 172.463158M1048.037053 630.568421c0 75.452632-64.673684 140.126316-140.126316 140.126316s-140.126316-64.673684-140.126316-140.126316 64.673684-140.126316 140.126316-140.126316 140.126316 64.673684 140.126316 140.126316" fill="#2C9AFA" p-id="1594"></path></svg>