<?xml version="1.0" standalone="no"?><!DOCTYPE svg PUBLIC "-//W3C//DTD SVG 1.1//EN" "http://www.w3.org/Graphics/SVG/1.1/DTD/svg11.dtd"><svg t="1740148602048" class="icon" viewBox="0 0 1401 1024" version="1.1" xmlns="http://www.w3.org/2000/svg" p-id="945" width="65.671875" height="48" xmlns:xlink="http://www.w3.org/1999/xlink"><path d="M0 1018.341053h1401.263158v-41.391158H0zM1009.717895 976.949895h165.510737V485.052632h-165.510737zM761.370947 976.949895h165.564632v-299.870316h-165.564632zM513.077895 976.949895h165.510737V377.263158H513.077895zM264.730947 976.949895h165.510737V538.947368H264.730947z" fill="#B4D8FF" p-id="946"></path><path d="M885.813895 833.374316l-457.728-281.70779-251.149474 219.674948L107.789474 692.277895l309.355789-270.713263 453.093053 278.797473L1226.213053 377.263158l74.320842 74.374737z" fill="#2C9AFA" p-id="947"></path><path d="M458.967579 196.931368a52.547368 52.547368 0 1 1 0.053895-105.148631 52.547368 52.547368 0 0 1 0 105.094737z m825.397895-122.610526L1209.990737 0l-353.549474 320.673684-295.774316-209.866105C539.162947 63.056842 505.263158 39.235368 458.967579 39.289263a105.094737 105.094737 0 0 0-105.094737 105.094737c0 0.700632 0.215579 1.455158 0.269474 2.155789L161.684211 315.068632l69.146947 79.063579 179.523368-157.049264c14.605474 7.653053 30.989474 12.395789 48.613053 12.39579 29.965474 0 56.751158-12.557474 75.883789-32.660211l332.422737 241.717895L1284.311579 74.374737z" fill="#6c81f0" p-id="948"></path></svg>