<?xml version="1.0" encoding="UTF-8"?>
<svg width="20px" height="20px" viewBox="0 0 20 20" version="1.1" xmlns="http://www.w3.org/2000/svg" xmlns:xlink="http://www.w3.org/1999/xlink">
    <title>0.bi/2.icon/4.彩色/作品/浅色-仪表板</title>
    <defs>
        <linearGradient x1="50%" y1="100%" x2="50%" y2="6.16297582e-31%" id="linearGradient-1">
            <stop stop-color="#5AACFF" offset="0%"></stop>
            <stop stop-color="#2E74FF" offset="100%"></stop>
        </linearGradient>
    </defs>
    <g id="0.bi/2.icon/4.彩色/作品/浅色-仪表板" stroke="none" stroke-width="1" fill="none" fill-rule="evenodd">
        <g id="areachart-outlined">
            <rect id="矩形" fill="#000000" fill-rule="nonzero" opacity="0" x="0" y="0" width="20" height="20"></rect>
            <rect id="矩形" fill="url(#linearGradient-1)" x="2.5" y="1" width="15" height="18" rx="1.66666667"></rect>
            <path d="M6.66666667,10 C7.12690396,10 7.5,10.373096 7.5,10.8333333 L7.5,13.3333333 C7.5,13.7935706 7.12690396,14.1666667 6.66666667,14.1666667 C6.20642938,14.1666667 5.83333333,13.7935706 5.83333333,13.3333333 L5.83333333,10.8333333 C5.83333333,10.373096 6.20642938,10 6.66666667,10 Z M10,8.33333333 C10.4602373,8.33333333 10.8333333,8.70642938 10.8333333,9.16666667 L10.8333333,13.3333333 C10.8333333,13.7935706 10.4602373,14.1666667 10,14.1666667 C9.53976271,14.1666667 9.16666667,13.7935706 9.16666667,13.3333333 L9.16666667,9.16666667 C9.16666667,8.70642938 9.53976271,8.33333333 10,8.33333333 Z M13.3333333,5.83333333 C13.7935706,5.83333333 14.1666667,6.20642938 14.1666667,6.66666667 L14.1666667,13.3333333 C14.1666667,13.7935706 13.7935706,14.1666667 13.3333333,14.1666667 C12.873096,14.1666667 12.5,13.7935706 12.5,13.3333333 L12.5,6.66666667 C12.5,6.20642938 12.873096,5.83333333 13.3333333,5.83333333 Z" id="形状结合" fill="#FFFFFF"></path>
        </g>
    </g>
</svg>