<?xml version="1.0" standalone="no"?><!DOCTYPE svg PUBLIC "-//W3C//DTD SVG 1.1//EN" "http://www.w3.org/Graphics/SVG/1.1/DTD/svg11.dtd"><svg t="1740209061825" class="icon" viewBox="0 0 1408 1024" version="1.1" xmlns="http://www.w3.org/2000/svg" p-id="5931" width="66" height="48" xmlns:xlink="http://www.w3.org/1999/xlink"><path d="M386.112 122.016m12 0l251.808 0q12 0 12 12l0 156q0 12-12 12l-251.808 0q-12 0-12-12l0-156q0-12 12-12Z" fill="#2E74FF" p-id="5932"></path><path d="M386.112 422.016m12 0l251.808 0q12 0 12 12l0 156q0 12-12 12l-251.808 0q-12 0-12-12l0-156q0-12 12-12Z" fill="#2E74FF" opacity=".6" p-id="5933"></path><path d="M918.048 242.016m12 0l241.952 0q12 0 12 12l0 156q0 12-12 12l-241.952 0q-12 0-12-12l0-156q0-12 12-12Z" fill="#2E74FF" opacity=".6" p-id="5934"></path><path d="M386.112 722.016m12 0l251.808 0q12 0 12 12l0 156q0 12-12 12l-251.808 0q-12 0-12-12l0-156q0-12 12-12Z" fill="#2E74FF" p-id="5935"></path><path d="M918.048 602.016m12 0l241.952 0q12 0 12 12l0 156q0 12-12 12l-241.952 0q-12 0-12-12l0-156q0-12 12-12Z" fill="#2E74FF" p-id="5936"></path><path d="M342.208 152v60H283.104v270.016h59.104v59.968H283.104v246.784l59.104 0.032v60H224V152.032zM892.8 287.04v60.032h-63.424v314.912h51.232v60h-110.336v-183.36h-59.104v-60h59.072l0.032-191.552h122.56z" fill="#000000" opacity=".12" p-id="5937"></path></svg>