<?xml version="1.0" standalone="no"?><!DOCTYPE svg PUBLIC "-//W3C//DTD SVG 1.1//EN" "http://www.w3.org/Graphics/SVG/1.1/DTD/svg11.dtd"><svg t="1740149702304" class="icon" viewBox="0 0 1024 1024" version="1.1" xmlns="http://www.w3.org/2000/svg" p-id="1000" width="48" height="48" xmlns:xlink="http://www.w3.org/1999/xlink"><path d="M74.162235 399.630877V54.417969H38.83039v380.510114h416.361546v-35.401123h-381.029701z" fill="#575D61" p-id="1001"></path><path d="M197.823693 260.866788m-76.20594 0a76.20594 76.20594 0 1 0 152.41188 0 76.20594 76.20594 0 1 0-152.41188 0Z" fill="#0475EE" p-id="1002"></path><path d="M197.823693 260.866788m-76.20594 0a76.20594 76.20594 0 1 0 152.41188 0 76.20594 76.20594 0 1 0-152.41188 0Z" fill="#047CF7" p-id="1003"></path><path d="M292.734727 49.256749a59.960219 59.960219 0 1 1-59.92558 59.960219 59.856302 59.856302 0 0 1 59.92558-59.960219z" fill="#1296db" p-id="1004"></path><path d="M378.46641 270.635004m-28.577228 0a28.577228 28.577228 0 1 0 57.154455 0 28.577228 28.577228 0 1 0-57.154455 0Z" fill="#0475EE" p-id="1005"></path><path d="M593.74819 399.630877V54.417969h-35.331845v380.510114h416.361546v-35.401123h-381.029701z" fill="#575D61" p-id="1006"></path><path d="M855.965902 156.949597m-76.20594 0a76.20594 76.20594 0 1 0 152.41188 0 76.20594 76.20594 0 1 0-152.41188 0Z" fill="#0475EE" p-id="1007"></path><path d="M821.326839 87.67147m-79.669847 0a79.669846 79.669846 0 1 0 159.339693 0 79.669846 79.669846 0 1 0-159.339693 0Z" fill="#047CF7" p-id="1008"></path><path d="M916.237873 222.452067a59.960219 59.960219 0 1 1-59.92558 59.960219 59.856302 59.856302 0 0 1 59.92558-59.960219z" fill="#1296db" p-id="1009"></path><path d="M724.857046 270.635004m-28.577227 0a28.577228 28.577228 0 1 0 57.154455 0 28.577228 28.577228 0 1 0-57.154455 0Z" fill="#0475EE" p-id="1010"></path><path d="M593.74819 988.49496v-345.212909h-35.331845v380.510115h416.361546v-35.401123h-381.029701z" fill="#575D61" p-id="1011"></path><path d="M717.236452 849.730871m-42.779243 0a42.779244 42.779244 0 1 0 85.558487 0 42.779244 42.779244 0 1 0-85.558487 0Z" fill="#0475EE" p-id="1012"></path><path d="M717.236452 849.730871m-42.779243 0a42.779244 42.779244 0 1 0 85.558487 0 42.779244 42.779244 0 1 0-85.558487 0Z" fill="#047CF7" p-id="1013"></path><path d="M812.667073 594.85664a103.328327 103.328327 0 1 1-103.917191 103.328327 103.466883 103.466883 0 0 1 103.917191-103.328327z" fill="#1296db" p-id="1014"></path><path d="M898.052365 859.499087m-28.577228 0a28.577228 28.577228 0 1 0 57.154455 0 28.577228 28.577228 0 1 0-57.154455 0Z" fill="#0475EE" p-id="1015"></path><path d="M74.162235 988.49496v-345.212909H38.83039v380.510115h416.361546v-35.401123h-381.029701z" fill="#575D61" p-id="1016"></path><path d="M267.10182 711.174616m-79.669847 0a79.669846 79.669846 0 1 0 159.339693 0 79.669846 79.669846 0 1 0-159.339693 0Z" fill="#0475EE" p-id="1017"></path><path d="M267.10182 711.174616m-79.669847 0a79.669846 79.669846 0 1 0 159.339693 0 79.669846 79.669846 0 1 0-159.339693 0Z" fill="#047CF7" p-id="1018"></path><path d="M396.651918 811.316149a59.960219 59.960219 0 1 1-59.92558 59.960219 59.856302 59.856302 0 0 1 59.92558-59.960219z" fill="#1296db" p-id="1019"></path><path d="M205.271091 859.499087m-28.577227 0a28.577228 28.577228 0 1 0 57.154455 0 28.577228 28.577228 0 1 0-57.154455 0Z" fill="#0475EE" p-id="1020"></path></svg>