<?xml version="1.0" standalone="no"?><!DOCTYPE svg PUBLIC "-//W3C//DTD SVG 1.1//EN" "http://www.w3.org/Graphics/SVG/1.1/DTD/svg11.dtd"><svg t="1740156529853" class="icon" viewBox="0 0 1408 1024" version="1.1" xmlns="http://www.w3.org/2000/svg" p-id="5630" width="66" height="48" xmlns:xlink="http://www.w3.org/1999/xlink"><path d="M544 128m12.8 0l326.4 0q12.8 0 12.8 12.8l0 166.4q0 12.8-12.8 12.8l-326.4 0q-12.8 0-12.8-12.8l0-166.4q0-12.8 12.8-12.8Z" fill="#2E74FF" opacity=".5" p-id="5631"></path><path d="M928 128m12.8 0l326.4 0q12.8 0 12.8 12.8l0 166.4q0 12.8-12.8 12.8l-326.4 0q-12.8 0-12.8-12.8l0-166.4q0-12.8 12.8-12.8Z" fill="#2E74FF" opacity=".2" p-id="5632"></path><path d="M128 128m12.8 0l358.4 0q12.8 0 12.8 12.8l0 166.4q0 12.8-12.8 12.8l-358.4 0q-12.8 0-12.8-12.8l0-166.4q0-12.8 12.8-12.8Z" fill="#2E74FF" p-id="5633"></path><path d="M1267.52 384c6.912 0 12.48 5.76 12.48 12.896v10.72l-513.888 247.808-141.152-65.024L128 864V396.896c0-7.104 5.568-12.896 12.48-12.896h1127.04z" fill="#000000" opacity=".116" p-id="5634"></path><path d="M1280 477.728V883.2c0 7.04-5.568 12.8-12.48 12.8H194.368l433.056-236.448 139.008 63.52L1280 477.76z" fill="#2E74FF" opacity=".6" p-id="5635"></path></svg>