<?xml version="1.0" standalone="no"?><!DOCTYPE svg PUBLIC "-//W3C//DTD SVG 1.1//EN" "http://www.w3.org/Graphics/SVG/1.1/DTD/svg11.dtd"><svg t="1740209043201" class="icon" viewBox="0 0 1024 1024" version="1.1" xmlns="http://www.w3.org/2000/svg" p-id="5715" width="48" height="48" xmlns:xlink="http://www.w3.org/1999/xlink"><path d="M334.769231 640v59.076923h59.076923v39.384615h-59.076923v59.076924h-39.384616v-59.096616l-59.076923 0.019692v-39.384615l59.076923-0.019692V640h39.384616zM778.555077 676.942769l-41.787077 41.747693 41.787077 41.787076-27.864615 27.844924L708.923077 746.574769l-41.767385 41.747693-27.864615-27.844924 41.787077-41.787076-41.787077-41.747693 27.864615-27.864615L708.923077 690.825846l41.747692-41.747692 27.864616 27.864615z" fill="#94B8FF" p-id="5716"></path><path d="M541.538462 315.076923l0.039384 4.686769c1.476923 70.931692 36.942769 100.844308 120.457846 111.852308l5.769846 0.708923 11.480616 1.220923 12.012308 1.024 3.091692 0.236308 3.150769 0.196923 12.859077 0.768 10.574769 0.472615 52.755693 1.752616 17.565538 0.728615 15.36 0.866462 9.156923 0.669538 8.428308 0.748308 7.798154 0.886154 7.286153 0.984615 6.892308 1.161846 1.654154 0.315077 1.634462 0.315077 6.439384 1.378462 1.575385 0.393846 1.575384 0.393846 6.262154 1.654154 3.111385 0.905846c40.507077 12.130462 65.122462 37.888 66.816 77.784615L935.384615 531.692308h-59.076923l-0.039384-1.61477c-0.531692-10.929231-6.616615-18.372923-22.784-23.492923l-3.623385-1.063384-5.454769-1.339077-1.457231-0.315077-1.496615-0.315077-6.380308-1.161846-1.693538-0.256-1.752616-0.275692-7.364923-0.984616-8.073846-0.905846-8.782769-0.787692-9.531077-0.708923-10.299077-0.630154-11.086769-0.551385-11.913847-0.492308-22.409846-0.708923-31.901538-1.181538-16.699077-0.964923-6.774154-0.492308-6.695385-0.551384-12.996923-1.28c-53.188923-5.868308-95.172923-18.176-125.558153-39.876924V531.692308h-59.076924l0.019693-79.95077c-30.385231 21.681231-72.369231 34.008615-125.577846 39.876924l-12.996923 1.28c-4.430769 0.393846-8.920615 0.748308-13.469539 1.043692l-16.699077 0.984615-31.901538 1.181539-22.409846 0.68923-11.913847 0.492308-11.086769 0.551385-10.299077 0.630154-9.531077 0.708923-8.782769 0.787692-8.073846 0.905846-7.364923 0.984616-3.446154 0.531692-6.380308 1.181538c-1.024 0.196923-2.008615 0.393846-2.953846 0.610462l-5.454769 1.339077c-18.904615 5.12-25.836308 12.839385-26.407385 24.556307L147.692308 531.692308h-59.076923c0-42.476308 24.910769-69.710769 66.914461-82.313846l3.111385-0.886154 6.242461-1.673846 3.15077-0.748308 6.459076-1.398154 3.308308-0.630154 6.872616-1.142154 7.286153-1.004307 7.798154-0.886154 8.428308-0.748308 9.176615-0.669538 15.340308-0.866462 17.565538-0.728615 52.775385-1.752616 10.555077-0.472615 12.878769-0.748308 6.222769-0.452923 12.012308-1.024 11.480616-1.220923c87.670154-10.377846 124.711385-40.014769 126.227692-112.561231L482.461538 315.076923h59.076924z" fill="#D1ECFF" p-id="5717"></path><path d="M39.384615 531.692308h157.538462c10.870154 0 19.692308 11.972923 19.692308 26.722461v320.708923c0 14.769231-8.822154 26.722462-19.692308 26.722462H39.384615c-10.870154 0-19.692308-11.972923-19.692307-26.722462V558.414769C19.692308 543.645538 28.514462 531.692308 39.384615 531.692308z" fill="#99C2FF" p-id="5718"></path><path d="M39.384615 531.692308h157.538462a19.692308 19.692308 0 0 1 19.692308 19.692307v334.769231a19.692308 19.692308 0 0 1-19.692308 19.692308H39.384615a19.692308 19.692308 0 0 1-19.692307-19.692308V551.384615a19.692308 19.692308 0 0 1 19.692307-19.692307z" fill="#A1D9FF" p-id="5719"></path><path d="M433.230769 531.692308h157.538462a19.692308 19.692308 0 0 1 19.692307 19.692307v334.769231a19.692308 19.692308 0 0 1-19.692307 19.692308h-157.538462a19.692308 19.692308 0 0 1-19.692307-19.692308V551.384615a19.692308 19.692308 0 0 1 19.692307-19.692307z" fill="#99C2FF" p-id="5720"></path><path d="M827.076923 531.692308h157.538462a19.692308 19.692308 0 0 1 19.692307 19.692307v334.769231a19.692308 19.692308 0 0 1-19.692307 19.692308h-157.538462a19.692308 19.692308 0 0 1-19.692308-19.692308V551.384615a19.692308 19.692308 0 0 1 19.692308-19.692307z" fill="#A1D9FF" p-id="5721"></path><path d="M256 118.153846h512a19.692308 19.692308 0 0 1 19.692308 19.692308v157.538461a19.692308 19.692308 0 0 1-19.692308 19.692308H256a19.692308 19.692308 0 0 1-19.692308-19.692308V137.846154a19.692308 19.692308 0 0 1 19.692308-19.692308z" fill="#5263FF" p-id="5722"></path><path d="M236.307692 118.153846h551.384616v196.923077H236.307692z" fill="#5263FF" p-id="5723"></path><path d="M19.692308 531.692308h196.923077v374.153846H19.692308zM807.384615 531.692308h196.923077v374.153846H807.384615z" fill="#94B8FF" p-id="5724"></path><path d="M413.538462 531.692308h196.923076v374.153846H413.538462z" fill="#A1D9FF" p-id="5725"></path></svg>