<?xml version="1.0" standalone="no"?><!DOCTYPE svg PUBLIC "-//W3C//DTD SVG 1.1//EN" "http://www.w3.org/Graphics/SVG/1.1/DTD/svg11.dtd"><svg t="1740156330478" class="icon" viewBox="0 0 1024 1024" version="1.1" xmlns="http://www.w3.org/2000/svg" p-id="1373" width="48" height="48" xmlns:xlink="http://www.w3.org/1999/xlink"><path d="M39.384615 78.769231h945.23077v866.461538H39.384615z" fill="#2C9CFA" fill-opacity=".5" p-id="1374"></path><path d="M118.153846 196.923077h590.769231v118.153846H118.153846z" fill="#1296db" p-id="1375"></path><path d="M266.555077 787.692308v-337.447385h-38.754462c-11.342769 12.288-25.521231 23.158154-42.535384 33.555692a197.710769 197.710769 0 0 1-47.734154 19.849847v51.042461c31.192615-8.979692 57.186462-23.158154 77.508923-42.535385V787.692308h51.515077z m302.473846 0v-45.371077h-168.723692c7.089231-18.432 28.829538-39.699692 65.220923-63.803077 33.555692-22.685538 56.713846-40.644923 69.947077-54.350769 21.740308-24.103385 33.083077-50.569846 33.083077-79.872 0-29.774769-10.397538-53.878154-30.72-72.78277-20.795077-18.904615-47.734154-27.884308-79.872-27.884307-35.918769 0-65.220923 11.815385-86.961231 36.391384-21.267692 22.685538-32.137846 52.932923-32.610462 90.742154H389.907692c0.945231-27.411692 6.616615-47.734154 17.959385-61.912615 10.870154-14.651077 26.939077-21.740308 48.206769-21.740308 19.849846 0 35.446154 4.726154 45.843692 14.178462 10.397538 9.452308 15.596308 23.630769 15.596308 42.535384 0 19.849846-8.034462 38.281846-23.158154 55.296-9.452308 9.924923-25.521231 22.685538-48.206769 38.754462-38.281846 26.466462-63.803077 46.788923-76.091077 61.44A128.315077 128.315077 0 0 0 336.502154 787.692308h232.526769z m168.723692 6.616615c35.918769 0 65.693538-10.397538 88.379077-30.247385 21.267692-19.849846 32.137846-45.371077 32.137846-76.563692 0-19.849846-5.671385-36.391385-17.014153-49.152-10.397538-12.288-25.521231-21.740308-45.371077-27.884308 36.864-12.288 55.768615-37.336615 55.768615-74.200615 0-28.829538-10.397538-51.515077-30.247385-68.056615-20.795077-16.541538-47.734154-24.576-81.762461-24.576-33.083077 0-60.022154 8.979692-80.817231 27.884307-22.212923 18.904615-34.500923 44.898462-37.336615 78.454154h50.569846c1.890462-20.795077 8.979692-36.391385 20.322461-46.788923 11.342769-10.397538 27.411692-15.596308 47.734154-15.596308 19.849846 0 35.446154 4.253538 45.843693 13.705847 9.452308 8.979692 14.651077 21.740308 14.651077 38.754461 0 17.014154-5.671385 30.247385-16.068924 39.227077-10.397538 8.979692-25.993846 13.705846-46.788923 13.705846h-24.103384v38.754462h24.576c22.212923 0 39.227077 4.726154 50.569846 14.178461 12.288 9.452308 18.432 24.103385 18.432 43.953231 0 17.014154-6.144 30.72-17.486769 42.062769-13.233231 12.288-30.72 18.904615-52.460308 18.904616-19.849846 0-35.918769-5.671385-48.206769-17.014154-14.178462-12.288-21.267692-29.774769-22.212923-52.460308h-51.987693c2.835692 37.809231 16.068923 66.638769 39.699693 86.488616 20.795077 17.486769 48.679385 26.466462 83.180307 26.466461z" fill="#FFFFFF" p-id="1376"></path></svg>