<?xml version="1.0" standalone="no"?><!DOCTYPE svg PUBLIC "-//W3C//DTD SVG 1.1//EN" "http://www.w3.org/Graphics/SVG/1.1/DTD/svg11.dtd"><svg t="1740156560205" class="icon" viewBox="0 0 1024 1024" version="1.1" xmlns="http://www.w3.org/2000/svg" p-id="6400" width="48" height="48" xmlns:xlink="http://www.w3.org/1999/xlink"><path d="M39.384615 630.153846h984.615385v393.846154H39.384615z" fill="#C5DEFF" p-id="6401"></path><path d="M0 630.153846h512v393.846154H0z" fill="#0156FF" p-id="6402"></path><path d="M116.184615 230.793846l-15.36 157.538462h40.172308c5.513846-10.24 12.996923-17.723077 23.236923-22.449231 9.452308-4.726154 20.086154-6.695385 32.689231-6.695385 18.904615 0 33.083077 5.513846 43.323077 16.541539 10.24 11.027692 15.36 26.387692 15.36 46.08 0 18.116923-5.907692 32.295385-17.723077 43.323077-11.815385 10.633846-26.387692 16.147692-43.716923 16.147692-15.753846 0-28.356923-3.544615-37.809231-10.633846-10.633846-7.876923-16.935385-20.086154-18.510769-35.84H95.704615c1.969231 25.993846 12.996923 46.867692 33.083077 61.833846 18.116923 13.784615 39.778462 20.873846 64.984616 20.873846 27.963077 0 51.987692-8.270769 72.073846-24.812308 21.267692-18.510769 32.295385-42.141538 32.295384-71.286153 0-30.326154-8.664615-53.956923-25.206153-71.286154-16.541538-17.329231-38.203077-25.993846-64.59077-25.993846-12.603077 0-24.418462 1.969231-34.658461 6.301538-11.421538 3.938462-21.267692 10.24-29.932308 19.298462h-1.181538l8.270769-81.132308h134.695385v-37.809231h-169.353847zM433.230769 225.28c-33.083077 0-58.683077 13.784615-76.8 41.747692-16.541538 25.6-24.812308 60.258462-24.812307 104.369231 0 43.716923 8.270769 78.375385 24.812307 104.369231 18.116923 27.569231 43.716923 41.747692 76.8 41.747692 33.083077 0 58.683077-14.178462 76.8-41.747692 16.541538-25.993846 24.812308-61.046154 24.812308-104.369231 0-43.716923-8.270769-78.375385-24.812308-104.369231-18.116923-27.963077-43.716923-41.747692-76.8-41.747692z m0 36.233846c22.843077 0 39.384615 12.603077 48.836923 38.203077 6.695385 17.329231 10.24 41.353846 10.24 71.68 0 29.932308-3.544615 53.956923-10.24 71.68-9.452308 25.206154-25.993846 38.203077-48.836923 38.203077-23.236923 0-39.384615-12.996923-48.836923-38.203077-7.089231-17.723077-10.24-41.747692-10.24-71.68 0-30.326154 3.150769-54.350769 10.24-71.68 9.452308-25.6 25.6-38.203077 48.836923-38.203077zM847.950769 358.006154c-22.055385 0-38.990769 7.483077-50.806154 23.236923-10.633846 13.390769-15.753846 31.507692-15.753846 53.956923 0 22.055385 5.12 39.778462 15.753846 53.956923 11.815385 14.966154 28.750769 22.843077 50.806154 22.843077 21.661538 0 38.203077-7.876923 50.018462-22.843077 10.24-13.784615 15.753846-31.901538 15.753846-53.956923 0-22.449231-5.513846-40.566154-15.753846-53.956923-11.815385-15.753846-28.356923-23.236923-50.018462-23.236923z m-38.990769-132.726154l-157.538462 292.233846h31.901539l157.932308-292.233846h-32.295385z m-163.446154 5.513846c-22.055385 0-38.990769 7.483077-50.806154 23.236923-10.633846 13.390769-15.753846 31.507692-15.753846 53.956923 0 22.055385 5.12 39.778462 15.753846 53.956923 11.815385 14.966154 28.750769 22.843077 50.806154 22.843077 21.661538 0 38.203077-7.876923 50.018462-22.843077 10.24-13.784615 15.753846-31.901538 15.753846-53.956923 0-22.449231-5.513846-40.566154-15.753846-53.956923-11.815385-15.753846-28.356923-23.236923-50.018462-23.236923z m202.436923 154.387692c9.846154 0 16.935385 5.12 21.267693 15.753847 3.544615 8.270769 5.513846 19.692308 5.513846 34.264615 0 14.178462-1.969231 25.206154-5.12 33.476923-4.726154 10.633846-11.815385 16.147692-21.661539 16.147692-10.24 0-17.723077-5.12-22.449231-15.36-3.544615-8.664615-5.12-20.086154-5.12-34.264615 0-14.966154 1.575385-26.387692 5.12-34.658462 4.726154-10.24 12.209231-15.36 22.449231-15.36z m-202.436923-127.212307c9.846154 0 16.935385 5.12 21.267692 15.753846 3.544615 8.270769 5.513846 19.692308 5.513847 34.264615 0 14.178462-1.969231 25.206154-5.12 33.476923-4.726154 10.633846-11.815385 16.147692-21.661539 16.147693-10.24 0-17.723077-5.12-22.449231-15.36-3.544615-8.664615-5.12-20.086154-5.12-34.264616 0-14.966154 1.575385-26.387692 5.12-34.658461 4.726154-10.24 12.209231-15.36 22.449231-15.36z" fill="#0156FF" p-id="6403"></path></svg>