<?xml version="1.0" standalone="no"?><!DOCTYPE svg PUBLIC "-//W3C//DTD SVG 1.1//EN" "http://www.w3.org/Graphics/SVG/1.1/DTD/svg11.dtd"><svg t="1740149530444" class="icon" viewBox="0 0 1072 1024" version="1.1" xmlns="http://www.w3.org/2000/svg" p-id="1003" width="50.25" height="48" xmlns:xlink="http://www.w3.org/1999/xlink"><path d="M858.209524 1014.247619H204.8L14.628571 355.961905 536.380952 0l521.752381 355.961905-199.923809 658.285714z m-619.276191-48.761905h580.266667l180.419048-590.019047L536.380952 58.514286 68.266667 380.342857l170.666666 585.142857z" fill="#2C9CFA" p-id="1004"></path><path d="M760.685714 887.466667H302.32381L170.666667 424.228571 536.380952 156.038095l365.714286 268.190476z" fill="#1296db" p-id="1005"></path><path d="M521.752381 258.438095l-243.809524 165.790476 136.533333 238.933334 287.695239 117.028571 43.885714-346.209524z" fill="#2C9CFA" p-id="1006"></path><path d="M560.761905 555.885714L43.885714 404.72381l14.628572-48.761905 453.485714 136.533333V43.885714h48.761905z" fill="#2C9CFA" p-id="1007"></path><path d="M238.933333 989.866667l-43.885714-24.380953 321.828571-482.742857 502.24762-146.285714 14.628571 48.761905-487.619048 136.533333z" fill="#2C9CFA" p-id="1008"></path><path d="M512 521.752381l39.009524-24.380952 302.323809 468.114285-43.885714 24.380953z" fill="#2C9CFA" p-id="1009"></path></svg>