<?xml version="1.0" standalone="no"?><!DOCTYPE svg PUBLIC "-//W3C//DTD SVG 1.1//EN" "http://www.w3.org/Graphics/SVG/1.1/DTD/svg11.dtd"><svg t="1740148831337" class="icon" viewBox="0 0 1024 1024" version="1.1" xmlns="http://www.w3.org/2000/svg" p-id="817" width="48" height="48" xmlns:xlink="http://www.w3.org/1999/xlink"><path d="M512 0c282.7776 0 512 229.2224 512 512s-229.2224 512-512 512S0 794.7776 0 512 229.2224 0 512 0z m0 102.4a409.6 409.6 0 1 0 0 819.2 409.6 409.6 0 0 0 0-819.2z" fill="#1296db" p-id="818"></path><path d="M512 768a256 256 0 0 0 0-512V153.6a358.4 358.4 0 1 1-358.4 358.4h102.4a256 256 0 0 0 256 256z" fill="#39B4FF" p-id="819"></path><path d="M512 307.2a204.8 204.8 0 1 1 0 409.6v-102.4a102.4 102.4 0 1 0 0-204.8V307.2z" fill="#1296db" p-id="820"></path></svg>