<?xml version="1.0" standalone="no"?><!DOCTYPE svg PUBLIC "-//W3C//DTD SVG 1.1//EN" "http://www.w3.org/Graphics/SVG/1.1/DTD/svg11.dtd"><svg t="1740148895753" class="icon" viewBox="0 0 1024 1024" version="1.1" xmlns="http://www.w3.org/2000/svg" p-id="848" width="48" height="48" xmlns:xlink="http://www.w3.org/1999/xlink"><path d="M836.44928 508.80192c-4.25856 0-7.9168-0.76864-11.0048-2.34432-3.072-1.57184-5.66592-3.6736-7.7152-6.28608-2.05504-2.6528-3.63648-5.79712-4.74432-9.43104a45.48224 45.48224 0 0 1-1.84128-11.44576h-27.76192c-0.144 8.69568 1.06496 16.41344 3.59872 23.11168 2.54016 6.69632 6.13376 12.35776 10.8032 17.00032 4.66432 4.65024 10.30784 8.17536 16.9536 10.5952 6.65984 2.41536 14.03008 3.6448 22.12736 3.6448 6.99648 0 13.6992-1.08544 20.15872-3.22752 6.4416-2.12352 12.14528-5.27488 17.05984-9.39136 4.94528-4.15552 8.89152-9.27936 11.84064-15.40992 2.94464-6.14272 4.41344-13.13152 4.41344-20.9696 0-8.5536-2.25728-15.90912-6.77824-22.03008-4.5312-6.14848-10.78656-10.12864-18.736-11.9776v-0.44544c6.73472-1.97568 11.77216-5.7632 15.12704-11.33504 3.35936-5.5552 5.0528-11.98272 5.0528-19.24544 0-6.71488-1.4432-12.63808-4.32832-17.75936-2.83904-5.08864-6.65152-9.5296-11.20832-13.05344-4.60032-3.568-9.77472-6.25216-15.5264-8.01472-5.76128-1.79008-11.5104-2.68992-17.27744-2.68992-7.41184 0-14.13056 1.24544-20.15872 3.74912-6.032 2.50816-11.20768 6.03392-15.52576 10.60096-4.32384 4.55488-7.68832 10.01792-10.09472 16.36224-2.38528 6.34112-3.72736 13.37344-3.99872 21.06368h27.7664c-0.14336-7.69024 1.67808-14.09152 5.44832-19.1424 3.77984-5.04832 9.35488-7.59104 16.76544-7.59104 5.33568 0 10.07936 1.71264 14.18496 5.12576 4.10944 3.43744 6.18112 8.35008 6.18112 14.76672 0 4.27648-1.0016 7.69728-2.98176 10.272-1.9968 2.55744-4.53056 4.53888-7.60832 5.88416-3.09888 1.36128-6.43776 2.1792-9.97824 2.44992-3.57824 0.2848-6.92672 0.2848-10.07872 0v21.4016c3.5616 0 7.29856 0.10368 11.20192 0.32 3.90272 0.21312 7.51296 1.01376 10.79808 2.34368 3.28512 1.36 6 3.5392 8.12992 6.53696 2.12416 2.99264 3.18464 7.3504 3.18464 13.05472 0 7.27296-2.25728 13.00416-6.784 17.2256-4.52992 4.21568-10.07808 6.28096-16.66496 6.28096" fill="#aedef8" p-id="849"></path><path d="M493.8816 177.05856h29.21024V27.30048h-23.24096c-0.8192 5.70688-2.53952 10.49472-5.14752 14.34368-2.59904 3.85344-5.77664 6.95488-9.552 9.29344-3.78624 2.34944-8.02368 4.01216-12.76736 4.93568a65.04 65.04 0 0 1-14.69568 1.16928v22.9024h36.19456v97.1136" fill="#1296db" p-id="850"></path><path d="M194.44288 309.29024a68.85824 68.85824 0 0 1-9.77024 7.79584 301.088 301.088 0 0 0-10.09408 6.96576 717.70816 717.70816 0 0 0-17.58784 13.03744c-5.55264 4.2816-10.3712 8.98176-14.49728 14.00896-4.10048 5.06688-7.36384 10.81408-9.77024 17.22688-2.39104 6.41664-3.59424 13.9872-3.59424 22.69888H234.8608v-26.11328H166.7776c3.488-5.05664 7.6352-9.59616 12.33152-13.47648a200.48768 200.48768 0 0 1 14.39616-10.80256 922.0288 922.0288 0 0 0 14.71744-10.1792c4.87104-3.40352 9.21088-7.21216 13.05472-11.4336 3.84576-4.19584 6.92096-9.01376 9.25376-14.43328 2.34304-5.44 3.49312-11.91616 3.49312-19.47648 0-7.26784-1.33696-13.82784-4.00896-19.68-2.66752-5.86304-6.256-10.75456-10.78848-14.76672-4.52544-3.9968-9.77024-7.04896-15.74848-9.19488-5.95264-2.1344-12.23616-3.2224-18.80064-3.2224-8.66368 0-16.28672 1.54816-22.9536 4.61056-6.64512 3.07456-12.16064 7.3568-16.54848 12.83456-4.40256 5.48352-7.68768 11.91232-9.87584 19.26272-2.19392 7.34016-3.15264 15.28256-2.8864 23.83552h27.97888c0-3.97376 0.37888-8.00832 1.13024-12.06016 0.76096-4.07168 2.02816-7.78944 3.79648-11.13792 1.79392-3.35296 4.15296-6.048 7.10336-8.11904 2.94976-2.07552 6.55936-3.1008 10.81344-3.1008 6.28928 0 11.47392 2.0096 15.51552 6.09344 4.05248 4.05696 6.06976 9.7216 6.06976 17.00096 0 4.57152-0.98944 8.62848-2.98112 12.19648-1.98144 3.5616-4.46336 6.77504-7.39712 9.6288" fill="#6dc5f3" p-id="851"></path><path d="M936.36288 592.93952h-194.82624v406.02496h196.10368c33.08544 0 59.98464-27.99488 59.98464-62.4V656.3904c0-34.98432-27.47392-63.45088-61.26208-63.45088M689.0912 284.42176c0-34.51776-26.92032-62.60096-59.98976-62.60096H389.12512c-33.08096 0-60.00128 28.0832-60.00128 62.60096l0.02176 714.54272h359.99488V596.29248l-0.04864 0.016V284.42176M20.59008 496.87744v439.68704c0 34.40512 26.92032 62.40512 59.98528 62.40512H276.7424V433.8912H81.85792c-33.7728 0-61.26784 28.24832-61.26784 62.98624" fill="#1296db" p-id="852"></path></svg>