<?xml version="1.0" standalone="no"?><!DOCTYPE svg PUBLIC "-//W3C//DTD SVG 1.1//EN" "http://www.w3.org/Graphics/SVG/1.1/DTD/svg11.dtd"><svg t="1740149831199" class="icon" viewBox="0 0 1575 1024" version="1.1" xmlns="http://www.w3.org/2000/svg" p-id="957" width="73.828125" height="48" xmlns:xlink="http://www.w3.org/1999/xlink"><path d="M906.09615366 603.57932725a640.34134634 640.34134634 0 0 0 126.43269268 65.0985573A1981.25480731 1981.25480731 0 0 1 1323.29807725 649.59615366V561.52163455a1800.5625 1800.5625 0 0 0-414.86538457 41.53846179l-2.33653902 0.51923091z m-172.57932641 151.93990364c-27.12980732-20.18509634-52.57211545-41.47355731-76.19711546-62.7620191-14.79807725 6.49038455-28.94711545 13.43509634-43.16105813 20.18509552A905.79807724 905.79807724 0 0 1 155.02884634 824.5120191v88.07451911a999.51923089 999.51923089 0 0 0 501.12259635-121.17548089c25.37740366-11.74759634 50.81971179-24.07932724 77.36538455-35.89182642z" fill="#1296db" p-id="958"></path><path d="M344.09375 421.13461545a866.59615366 866.59615366 0 0 0 205.09615366-85.80288455c12.39663455-6.49038455 24.79326911-12.9807691 37.77403902-19.47115365A644.1057691 644.1057691 0 0 0 155.02884634 160.61057724v219.82932642a407.2067309 407.2067309 0 0 1 189.06490366 40.37019268V421.13461545z m558.62740366 182.3798073c-103.19711545 14.92788455-203.79807725 44.19951911-299.01201911 86.90625A932.86298089 932.86298089 0 0 0 1193.49038455 868.97115366V649.14182725c-98.91346179 2.59615366-197.50240366-12.9807691-290.76923089-45.95192359v0.32451909zM657.125 693.0817309a1236.15865366 1236.15865366 0 0 1 248.77644268-89.17788456 723.02884634 723.02884634 0 0 1-58.41346179-43.16105813c-47.31490366 19.47115366-89.24278821 41.47355731-131.81971179 63.34615447-27.77884634 14.60336545-56.14182724 29.14182724-86.84134634 43.74519187l28.29807724 25.24759634z" fill="#69bfed" p-id="959"></path><path d="M586.96394268 315.40625a1788.36057725 1788.36057725 0 0 1 132.40384553 123.90144269c40.69471179 42.51201911 83.72596179 82.75240366 128.83413454 120.52644186a1168.98317275 1168.98317275 0 0 1 469.77403904-75.67788455V155.02884634c-389.42307725 0-582.64182725 84.375-731.01201911 160.37740366z m42.57692277 352.10336545l-2.3365382-2.2067309c-27.19471179-25.24759634-51.92307725-50.49519269-76.26201994-75.15865365a798.31730732 798.31730732 0 0 0-206.84855731-169.33413456c-61.98317276 14.21394269-125.45913455 20.76923089-189.06490366 19.47115366v329.19230731A1031.97115366 1031.97115366 0 0 0 613.57451911 674.25961545c4.7379809-2.27163455 12.39663455-5.5817309 12.39663455-5.5817309l3.56971179-1.1682691z m0 0L719.36778821 439.30769269a1677.63461545 1677.63461545 0 0 0-132.40384553-123.90144269c-12.9807691 6.49038455-25.37740366 12.9807691-37.77403902 19.47115366a876.85096179 876.85096179 0 0 1-205.09615366 85.80288455C421.97836545 465.20432724 491.81490366 522.38461545 550.94230732 589.88461545c24.79326911 25.24759634 50.81971179 51.01442276 78.59855813 77.36538455 30.31009634-14.60336545 59.25721179-29.2067309 86.84134634-43.74519269 42.57692276-21.87259634 84.375-43.74519269 131.81971096-63.34615365a1707.42548089 1707.42548089 0 0 1-128.83413454-121.11057641l-89.82692276 228.4615382z" fill="#1296db" p-id="960"></path></svg>