<?xml version="1.0" standalone="no"?><!DOCTYPE svg PUBLIC "-//W3C//DTD SVG 1.1//EN" "http://www.w3.org/Graphics/SVG/1.1/DTD/svg11.dtd"><svg t="1740149633507" class="icon" viewBox="0 0 1445 1024" version="1.1" xmlns="http://www.w3.org/2000/svg" p-id="2150" width="67.734375" height="48" xmlns:xlink="http://www.w3.org/1999/xlink"><path d="M1445.647059 963.764706v60.235294H0v-60.235294z" fill="#5182E4" fill-opacity=".3" p-id="2151"></path><path d="M613.014588 591.691294a120.229647 120.229647 0 0 1-17.468235-9.637647 120.470588 120.470588 0 1 1-46.682353-140.047059 120.470588 120.470588 0 0 1 223.533176-9.697882 120.470588 120.470588 0 1 1-159.382588 159.382588zM602.352941 542.117647c0 13.974588-2.409412 27.407059-6.746353 39.875765L602.352941 542.117647zM361.411765 361.411765a120.470588 120.470588 0 1 1 0-240.941177 120.470588 120.470588 0 0 1 0 240.941177z m-180.705883 542.117647a120.470588 120.470588 0 1 1 0-240.941177 120.470588 120.470588 0 0 1 0 240.941177z" fill="#5182E4" fill-opacity=".504" p-id="2152"></path><path d="M304.971294 602.292706A120.711529 120.711529 0 0 0 421.647059 752.941176a120.470588 120.470588 0 0 0 119.687529-106.917647A120.470588 120.470588 0 0 0 706.680471 481.882353a120.470588 120.470588 0 1 0-208.715295 0 119.687529 119.687529 0 0 0-15.299764 46.682353 119.868235 119.868235 0 0 0-64.813177-16.504471A120.711529 120.711529 0 0 0 301.176471 361.411765a120.470588 120.470588 0 1 0 3.794823 240.880941zM1204.705882 240.941176a120.470588 120.470588 0 1 1 0-240.941176 120.470588 120.470588 0 0 1 0 240.941176z m-120.470588 481.882353a120.470588 120.470588 0 1 1 0-240.941176 120.470588 120.470588 0 0 1 0 240.941176z m-240.941176-301.17647a120.470588 120.470588 0 1 1 0-240.941177 120.470588 120.470588 0 0 1 0 240.941177z" fill="#5182E4" p-id="2153"></path></svg>