<?xml version="1.0" standalone="no"?><!DOCTYPE svg PUBLIC "-//W3C//DTD SVG 1.1//EN" "http://www.w3.org/Graphics/SVG/1.1/DTD/svg11.dtd"><svg t="1740156715098" class="icon" viewBox="0 0 1024 1024" version="1.1" xmlns="http://www.w3.org/2000/svg" p-id="1217" width="48" height="48" xmlns:xlink="http://www.w3.org/1999/xlink"><path d="M597.383987 720.0768c0 48.31232-38.27712 87.47008-85.38112 87.47008s-85.31968-39.15776-85.31968-87.49056c0-48.25088 38.21568-87.49056 85.31968-87.49056 47.104 0 85.38112 39.23968 85.38112 87.49056" fill="#2F82FF" p-id="1218"></path><path d="M426.683187 720.0768h170.7008L532.482867 468.64384a20.992 20.992 0 0 0-40.96 0L426.683187 720.0768z" fill="#2F82FF" opacity=".502" p-id="1219"></path><path d="M834.562867 181.37088l-152.33024 156.09856a308.0192 308.0192 0 0 1 128.512 251.33056 309.12512 309.12512 0 0 1-87.47008 216.51456l150.77376 154.68544A529.92 529.92 0 0 0 1024.002867 588.86144a528.77312 528.77312 0 0 0-189.44-407.49056" fill="#2F82FF" opacity=".499" p-id="1220"></path><path d="M834.562867 181.37088A502.0672 502.0672 0 0 0 512.002867 64c-282.74688 0-512 234.94656-512 524.86144a529.94048 529.94048 0 0 0 149.95456 371.13856l150.91712-154.624a309.12512 309.12512 0 0 1-87.552-216.51456c0-169.08288 133.7344-306.176 298.68032-306.176 63.36512 0 121.91744 20.35712 170.22976 54.784l152.33024-156.09856z" fill="#2F82FF" p-id="1221"></path></svg>