<?xml version="1.0" standalone="no"?><!DOCTYPE svg PUBLIC "-//W3C//DTD SVG 1.1//EN" "http://www.w3.org/Graphics/SVG/1.1/DTD/svg11.dtd"><svg t="1740156860788" class="icon" viewBox="0 0 1024 1024" version="1.1" xmlns="http://www.w3.org/2000/svg" p-id="3884" width="48" height="48" xmlns:xlink="http://www.w3.org/1999/xlink"><path d="M417.8 755.6h110.6v140.9H417.8V755.6z" fill="#ABBDFF" p-id="3885"></path><path d="M527.8 755.4h110.6v140.9H527.8V755.4z" fill="#3D54FD" p-id="3886"></path><path d="M308.7 615.3h110.6v140.9H308.7V615.3z" fill="#ABBDFF" p-id="3887"></path><path d="M418.7 615h110.6v140.9H418.7V615z" fill="#3D54FD" p-id="3888"></path><path d="M637.8 755.9h110.6v140.9H637.8V755.9z" fill="#ABBDFF" p-id="3889"></path><path d="M747.8 755.6h110.6v140.9H747.8V755.6z" fill="#3D54FD" p-id="3890"></path><path d="M528.7 614.6h110.6v140.9H528.7V614.6z" fill="#ABBDFF" p-id="3891"></path><path d="M638.7 615.3h110.6v140.9H638.7V615.3z m-440.7-0.4h110.6v140.9H198V614.9z m-67.4-287.4h110.6v140.9H130.6V327.5z" fill="#3D54FD" p-id="3892"></path><path d="M417.3 473.7h110.6v140.9H417.3V473.7z" fill="#ABBDFF" p-id="3893"></path><path d="M527.3 473.5h110.6v140.9H527.3V473.5z" fill="#3D54FD" p-id="3894"></path><path d="M747.3 475.3h110.6v140.9H747.3V475.3z m2.5-283.5h110.6v140.9H749.8V191.8z m-332.6 0.5h110.6v140.9H417.2V192.3z m111 140.7h110.6v140.9H528.2V333z" fill="#ABBDFF" p-id="3895"></path><path d="M417.3 333.1h110.6V474H417.3V333.1zM638.2 192h110.6v140.9H638.2V192zM306.5 474.4H417v140.9H306.5V474.4z" fill="#3D54FD" p-id="3896"></path><path d="M130.3 186.6h110.6v140.9H130.3V186.6z" fill="#ABBDFF" p-id="3897"></path><path d="M97.4 902H943v46H97.4z" fill="#898F9F" p-id="3898"></path></svg>