<?xml version="1.0" standalone="no"?><!DOCTYPE svg PUBLIC "-//W3C//DTD SVG 1.1//EN" "http://www.w3.org/Graphics/SVG/1.1/DTD/svg11.dtd"><svg t="1740156544394" class="icon" viewBox="0 0 1408 1024" version="1.1" xmlns="http://www.w3.org/2000/svg" p-id="5883" width="66" height="48" xmlns:xlink="http://www.w3.org/1999/xlink"><path d="M1162.016 160c12.16 0 21.984 9.856 21.984 22.016v660c0 12.16-9.856 21.984-22.016 21.984H758.016a21.984 21.984 0 0 1-22.016-22.016V182.016c0-12.16 9.856-21.984 22.016-21.984h404z m-196.128 100.576c-36.064 0.48-66.784 15.232-91.328 43.712-24.064 28.896-36.8 65.056-38.464 108.192a13.696 13.696 0 0 0 13.184 14.24h59.84a13.664 13.664 0 0 0 13.12-9.824l0.448-2.56c1.856-19.2 7.456-33.472 16.544-43.2a40 40 0 0 1 31.456-13.952c14.4 0.32 24.96 5.44 32.576 15.52 7.872 10.88 11.872 23.776 11.872 38.976 0 5.92-0.64 12.288-2.016 19.136-1.6 5.6-5.312 13.12-10.88 21.504l-162.24 233.472a22.016 22.016 0 0 0-3.904 12.576v54.4c0 12.16 9.856 21.984 21.984 21.984h222.016c12.16 0 22.016-9.824 22.016-21.984V700.16a22.016 22.016 0 0 0-22.016-21.984h-83.808a21.984 21.984 0 0 1-18.08-34.56l96.096-138.56c18.56-27.136 27.808-58.144 27.808-92.704-0.416-43.104-13.184-79.136-38.304-107.52-23.328-27.072-53.696-41.856-90.176-44l-7.744-0.256z" fill="#2E74FF" opacity=".6" p-id="5884"></path><path d="M650.016 160c12.16 0 21.984 9.856 21.984 22.016v660c0 12.16-9.856 21.984-22.016 21.984H246.016A21.984 21.984 0 0 1 224 841.984V182.016c0-12.16 9.856-21.984 22.016-21.984h404z m-193.12 100.576c-33.888 0.48-63.296 14.528-87.424 41.536-24.064 26.752-37.824 59.744-41.152 98.464a13.728 13.728 0 0 0 12.48 14.816l0.608 0.064h60.16c5.76 0 10.752-3.52 12.736-8.736l0.672-2.304c3.296-17.024 9.344-28.896 17.92-36.16 8.416-7.616 16.992-11.072 26.496-11.072 13.952 0.32 25.088 5.312 33.92 15.104 8.96 10.304 13.696 23.808 14.016 40.992 0 16.544-4.512 29.536-13.44 39.488-8.8 10.112-21.056 15.104-37.952 15.104h-12.096a21.984 21.984 0 0 0-22.016 22.016v44.64c0 12.16 9.856 22.016 22.016 22.016h16.704c15.04 0 26.848 4.992 36.352 15.264 9.728 10.656 14.976 26.4 15.328 47.744-0.32 20.384-5.536 35.616-15.264 45.92-9.92 11.424-21.184 16.64-34.976 16.64-13.024 0-22.816-3.808-30.144-11.456-8.384-8.48-14.88-19.68-19.616-33.888a13.568 13.568 0 0 0-12.896-9.28h-59.616a13.76 13.76 0 0 0-13.76 13.76l0.064 1.088 0.128 1.088c6.976 42.976 22.56 76.384 46.944 99.808 24.512 23.552 53.12 35.52 85.152 35.52 40.896-0.512 74.784-15.68 100.928-45.248 26.272-28.544 39.616-67.52 40-116.032 0-22.208-4.064-43.424-12.224-63.616l-3.2-6.912a125.44 125.44 0 0 0-21.76-30.912l-0.288-0.256a6.496 6.496 0 0 1-0.064-9.216c10.24-11.008 17.952-23.04 23.04-36.16 6.496-19.296 9.6-38.656 9.6-58.72-0.416-39.84-12.384-74.624-35.84-104-23.616-29.056-55.168-44.704-93.856-46.88l-7.68-0.224z" fill="#2E74FF" p-id="5885"></path></svg>