<?xml version="1.0" standalone="no"?><!DOCTYPE svg PUBLIC "-//W3C//DTD SVG 1.1//EN" "http://www.w3.org/Graphics/SVG/1.1/DTD/svg11.dtd"><svg t="1740156741488" class="icon" viewBox="0 0 1024 1024" version="1.1" xmlns="http://www.w3.org/2000/svg" p-id="948" width="48" height="48" xmlns:xlink="http://www.w3.org/1999/xlink"><path d="M-34.13333333-34.13333333m91.02222186 0l910.22222294 0q91.02222187 0 91.02222186 91.02222186l0 910.22222294q0 91.02222187-91.02222186 91.02222186l-910.22222294 0q-91.02222187 0-91.02222186-91.02222186l0-910.22222294q0-91.02222187 91.02222186-91.02222186Z" fill="#FFFFFF" p-id="949"></path><path d="M322.7648 544.768h453.6547552v-79.96302187h-72.99982187c-18.34097813 5.68888853-36.2723552 7.41831147-56.3427552 7.4183104-54.61333333 0-101.85386667-18.34097813-129.3880896-45.4656 0-1.72942187-1.77493333-1.72942187-3.5043552-3.5043552-1.72942187-1.72942187-3.5043552-5.64337813-7.41831146-9.14773333-21.84533333-23.62026667-58.1632-40.23182187-100.12444374-40.23182187-47.19502187 0-89.15626667 21.84533333-109.22666666 51.15448854v82.1475552c3.4588448 7.46382187 9.14773333 12.6976 16.56604373 20.11591146 3.0947552 6.5536 7.00871147 12.24248853 8.7836448 17.47626667z" fill="#C7E0FD" p-id="950"></path><path d="M747.15591147 435.54133333c-18.34097813 5.64337813-32.768 16.5660448-41.9612448 29.2636448-3.5043552 1.72942187-5.68888853 3.5043552-9.1932448 5.68888854-29.2636448 23.5747552-72.99982187 40.18631147-120.14933334 40.18631146-58.1632 0-107.5427552-21.84533333-136.8519104-54.61333333a3.77742187 3.77742187 0 0 0-3.50435626-3.50435627 42.14328853 42.14328853 0 0 0-7.4183104-9.19324373c-23.62026667-29.2636448-62.0771552-47.19502187-105.76782294-47.19502293-34.54293333 0-63.80657813 10.92266667-87.38133333 29.2636448a263.69137813 263.69137813 0 0 0-14.47253333 87.4268448c0 41.9612448 9.1932448 82.19306667 25.3496896 116.69048853 36.2723552 72.99982187 96.62008853 129.38808853 169.1648 156.51271147 1.72942187 0 3.5043552 1.72942187 5.68888853 1.72942186 3.5043552 1.72942187 5.23377813 1.72942187 9.14773333 3.5043552 25.3952 7.41831147 54.6588448 12.65208853 82.19306667 12.6520896 29.2636448 0 58.11768853-3.4588448 85.65191147-12.6520896 1.77493333 0 3.5043552-1.77493333 5.68888853-1.77493333 3.5043552-1.72942187 9.1932448-3.4588448 12.6976-5.64337707 65.536-27.53422187 120.14933333-78.27911147 156.4672-143.81511146a294.41137813 294.41137813 0 0 0 29.2636448-127.6131552c0-27.53422187-3.4588448-52.88391147-10.92266667-78.27911147-10.92266667-3.9139552-27.53422187-3.9139552-43.69066666 1.36533333z" fill="#2185F9" p-id="951"></path><path d="M512 147.91111147c-200.20337813 0-364.08888853 163.88551147-364.08888853 364.08888853s163.88551147 364.08888853 364.08888853 364.08888853 364.08888853-163.88551147 364.08888853-364.08888853-163.88551147-364.08888853-364.08888853-364.08888853z m0 691.90542186c-180.49706667 0-327.81653333-147.72906667-327.81653333-327.81653333 0-180.08746667 147.31946667-327.81653333 327.81653333-327.81653333S839.81653333 331.50293333 839.81653333 512 692.49706667 839.81653333 512 839.81653333z" fill="#2185F9" p-id="952"></path></svg>