<?xml version="1.0" standalone="no"?><!DOCTYPE svg PUBLIC "-//W3C//DTD SVG 1.1//EN" "http://www.w3.org/Graphics/SVG/1.1/DTD/svg11.dtd"><svg t="1735059564963" class="icon" viewBox="0 0 1024 1024" version="1.1" xmlns="http://www.w3.org/2000/svg" p-id="5035" width="64" height="64" xmlns:xlink="http://www.w3.org/1999/xlink"><path d="M890.88 732.16c-22.186667 39.253333-69.973333 59.733333-134.826667 59.733333-25.6 0-54.613333-3.413333-85.333333-10.24-35.84 114.346667-92.16 179.2-158.72 179.2-66.56 0-122.88-64.853333-158.72-179.2-32.426667 6.826667-61.44 10.24-87.04 10.24-64.853333 0-109.226667-20.48-133.12-59.733333-32.426667-56.32-6.826667-134.826667 69.973333-220.16-76.8-85.333333-102.4-163.84-69.973333-220.16 32.426667-54.613333 110.933333-73.386667 220.16-49.493333C389.12 128 445.44 63.146667 512 63.146667c66.56 0 124.586667 64.853333 158.72 179.2 34.133333-6.826667 64.853333-10.24 93.866667-10.24 61.44 1.706667 104.106667 22.186667 126.293333 59.733333 32.426667 56.32 6.826667 134.826667-69.973333 220.16 76.8 85.333333 102.4 163.84 69.973333 220.16z m-467.626667-10.24c27.306667 112.64 68.266667 155.306667 88.746667 155.306667 17.066667 0 51.2-32.426667 78.506667-116.053334-30.72-10.24-63.146667-23.893333-95.573334-39.253333-27.306667-11.946667-52.906667-27.306667-78.506666-40.96h-1.706667c1.706667 11.946667 5.12 27.306667 8.533333 40.96z m-216.746666-30.72c8.533333 13.653333 49.493333 25.6 128 10.24-6.826667-34.133333-11.946667-68.266667-13.653334-104.106667-1.706667-25.6-3.413333-51.2-3.413333-78.506666-8.533333 6.826667-17.066667 15.36-25.6 22.186666-80.213333 78.506667-95.573333 133.12-85.333333 150.186667z m163.84-358.4c-102.4-29.013333-155.306667-15.36-165.546667 1.706667-8.533333 13.653333 1.706667 58.026667 58.026667 119.466666 22.186667-18.773333 46.08-39.253333 73.386666-58.026666 25.6-17.066667 51.2-34.133333 76.8-49.493334-13.653333-5.12-29.013333-10.24-42.666666-13.653333z m230.4-30.72c-27.306667-112.64-68.266667-155.306667-88.746667-155.306667-17.066667 0-51.2 32.426667-78.506667 116.053334 30.72 10.24 63.146667 23.893333 95.573334 39.253333 27.306667 11.946667 52.906667 25.6 78.506666 40.96h1.706667c-1.706667-11.946667-5.12-27.306667-8.533333-40.96z m20.48 150.186667l-56.32-35.84c-17.066667-10.24-35.84-20.48-54.613334-29.013334-18.773333 8.533333-35.84 18.773333-54.613333 29.013334-18.773333 10.24-37.546667 22.186667-56.32 35.84-1.706667 18.773333-1.706667 39.253333-1.706667 59.733333 0 20.48 1.706667 39.253333 1.706667 59.733333l56.32 35.84c17.066667 10.24 35.84 20.48 54.613333 29.013334 18.773333-8.533333 35.84-18.773333 54.613334-29.013334 18.773333-10.24 37.546667-23.893333 56.32-35.84 1.706667-18.773333 1.706667-39.253333 1.706666-59.733333 1.706667-20.48 0-39.253333-1.706666-59.733333z m-10.24 225.28c13.653333 5.12 29.013333 10.24 42.666666 13.653333 102.4 29.013333 155.306667 15.36 165.546667-1.706667 8.533333-13.653333-1.706667-58.026667-58.026667-119.466666-22.186667 18.773333-46.08 39.253333-73.386666 58.026666-25.6 18.773333-51.2 34.133333-76.8 49.493334z m206.506666-344.746667c-8.533333-13.653333-49.493333-25.6-128-10.24 6.826667 34.133333 11.946667 68.266667 13.653334 104.106667 1.706667 25.6 3.413333 51.2 3.413333 78.506666 8.533333-6.826667 17.066667-15.36 25.6-23.893333 80.213333-76.8 95.573333-131.413333 85.333333-148.48zM512 568.32c-30.72 0-56.32-25.6-56.32-56.32 0-30.72 25.6-56.32 56.32-56.32 30.72 0 56.32 25.6 56.32 56.32 0 30.72-25.6 56.32-56.32 56.32z m0 0" p-id="5036" fill="#43b7f4"></path></svg>